<svg version="1.1" id="Layer_1" xmlns="http://www.w3.org/2000/svg" xmlns:xlink="http://www.w3.org/1999/xlink" x="0px" y="0px"
	 width="100%" viewBox="0 0 500 248" enable-background="new 0 0 500 248" xml:space="preserve">
<path fill="#F4F2EE" opacity="1.000000" stroke="none" 
	d="
M377.000000,249.000000 
	C251.375153,249.000000 126.250313,249.000000 1.062736,249.000000 
	C1.062736,166.402817 1.062736,83.805580 1.062736,1.104169 
	C167.666641,1.104169 334.333313,1.104169 500.979218,1.104169 
	C500.979218,83.749619 500.979218,166.374817 500.979218,249.000000 
	C459.805634,249.000000 418.652802,249.000000 377.000000,249.000000 
M64.141861,14.168235 
	C52.078316,9.359637 39.564011,12.049887 27.180202,11.232943 
	C27.180202,44.639610 27.180202,77.328888 27.180202,110.313446 
	C35.226772,110.313446 42.871872,110.325096 50.516895,110.306038 
	C52.680016,110.300644 54.854809,110.332069 57.003872,110.129951 
	C66.972397,109.192421 74.228119,103.209518 76.890320,93.835869 
	C81.506042,77.583839 77.720665,66.673088 64.236496,57.363197 
	C79.662018,47.191498 79.984764,24.198059 64.141861,14.168235 
M466.848724,110.317413 
	C469.799530,110.317413 472.750366,110.317413 475.811646,110.317413 
	C475.811646,77.048988 475.811646,44.362137 475.811646,11.654015 
	C471.476471,11.654015 467.564087,11.654015 463.043640,11.654015 
	C463.043640,22.172224 463.043640,32.350777 463.043640,42.851166 
	C449.545837,35.253883 439.378174,38.225800 436.364166,51.135357 
	C432.656250,67.017036 432.797089,83.254944 436.221558,99.213493 
	C438.151031,108.205017 445.524323,112.669273 454.254517,111.002380 
	C457.088104,110.461349 459.705139,108.786049 462.165039,107.738640 
	C463.408508,108.582458 464.684082,109.448036 466.848724,110.317413 
M27.718813,137.014954 
	C27.718813,168.741760 27.718813,200.468567 27.718813,232.324768 
	C36.205826,232.324768 44.026543,232.496765 51.836979,232.286606 
	C65.365479,231.922607 74.012093,225.068390 74.861412,211.605347 
	C76.021721,193.212326 76.369095,174.667328 75.414223,156.273148 
	C74.637741,141.315353 66.775368,134.484070 52.563644,133.540955 
	C45.268349,133.056854 37.917465,133.266083 30.598885,133.449142 
	C29.617590,133.473694 28.678551,135.187622 27.718813,137.014954 
M280.976135,159.379837 
	C280.591064,150.760361 279.748810,142.136093 272.122314,136.521332 
	C256.870667,125.292870 234.736954,134.342346 233.128418,153.050171 
	C231.749481,169.087250 232.240234,185.291199 232.083954,201.423096 
	C232.043869,205.560471 232.454758,209.737656 233.051910,213.839279 
	C235.044449,227.525208 244.334122,234.841965 258.131775,233.925598 
	C265.278625,233.450912 270.586670,230.181808 274.442352,223.903046 
	C274.774323,226.608063 275.106262,229.313080 275.447144,232.090851 
	C277.497986,232.090851 279.239349,232.090851 280.981323,232.090851 
	C280.981323,216.073807 280.981323,200.339661 280.981323,184.676666 
	C273.228851,184.676666 265.801025,184.676666 258.252869,184.676666 
	C258.252869,186.958252 258.252869,188.926910 258.252869,191.471909 
	C263.120758,191.471909 267.846313,191.471909 273.283905,191.471909 
	C272.799591,199.355331 272.801758,206.689499 271.790802,213.881226 
	C270.572388,222.549042 265.154266,226.546768 256.494659,226.267990 
	C247.620483,225.982330 242.339478,221.130875 242.098648,211.167557 
	C241.644379,192.374527 241.919861,173.562881 241.999634,154.759445 
	C242.007904,152.807770 242.543259,150.792267 243.174759,148.921356 
	C245.328552,142.540497 250.335220,139.617264 258.155640,139.978668 
	C265.635773,140.324356 269.565033,143.159698 270.999084,150.078583 
	C271.931030,154.574921 272.064514,159.236755 272.576996,164.023209 
	C275.291809,164.023209 278.040741,164.023209 281.003479,164.023209 
	C281.003479,162.596405 281.003479,161.438843 280.976135,159.379837 
M334.424133,184.330719 
	C337.201660,184.330719 339.979156,184.330719 343.173401,184.330719 
	C343.173401,200.686844 343.173401,216.448669 343.173401,232.070847 
	C346.366943,232.070847 349.131439,232.070847 351.882446,232.070847 
	C351.882446,199.083984 351.882446,166.379593 351.882446,133.639496 
	C348.785187,133.639496 346.043304,133.639496 342.866638,133.639496 
	C342.866638,148.354660 342.866638,162.776672 342.866638,177.020935 
	C332.352844,177.020935 322.283875,177.020935 311.714722,177.020935 
	C311.714722,162.320312 311.714722,147.932953 311.714722,133.657318 
	C308.448120,133.657318 305.698242,133.657318 302.928558,133.657318 
	C302.928558,166.666336 302.928558,199.356827 302.928558,232.115082 
	C306.066467,232.115082 308.824066,232.115082 312.062164,232.115082 
	C312.062164,216.152985 312.062164,200.420685 312.062164,184.848160 
	C312.846222,184.580612 313.149078,184.388153 313.452881,184.386719 
	C320.115692,184.355286 326.778625,184.345047 334.424133,184.330719 
M134.794113,46.921028 
	C130.486435,37.704437 117.255913,36.831066 108.635765,39.915020 
	C100.671486,42.764324 96.140221,51.652386 97.662910,61.394012 
	C101.535065,61.394012 105.467537,61.394012 109.471878,61.394012 
	C109.960808,58.383305 109.864845,55.200947 111.092430,52.657345 
	C112.007660,50.760933 114.483192,48.876980 116.543709,48.494312 
	C118.388535,48.151699 122.057388,49.468746 122.412361,50.749153 
	C123.626640,55.129185 124.304710,59.859619 123.955521,64.360840 
	C123.834930,65.915314 120.183884,67.319000 118.014771,68.563728 
	C114.413757,70.630142 110.537666,72.254631 107.080589,74.526558 
	C100.194267,79.052124 96.783836,85.591537 96.743309,93.900162 
	C96.703522,102.057579 100.574005,108.616127 106.810104,110.674835 
	C113.300835,112.817612 118.728401,110.366936 123.945068,102.958427 
	C124.120590,102.709167 124.447105,102.566216 124.450447,102.563713 
	C125.772797,105.106445 126.507347,108.918465 128.610184,109.955215 
	C131.240112,111.251839 134.994873,110.266945 137.572693,110.266945 
	C137.572693,94.342003 137.783737,79.057671 137.459122,63.784725 
	C137.344284,58.382462 135.922592,53.007973 134.794113,46.921028 
M268.295410,94.497711 
	C268.295471,82.166298 268.278046,69.834846 268.304199,57.503494 
	C268.314758,52.513939 272.407471,48.612350 277.576752,48.817684 
	C283.137115,49.038555 283.028320,53.274521 283.041992,57.157097 
	C283.097626,72.987854 283.069366,88.818909 283.071899,104.649849 
	C283.072174,106.421539 283.071930,108.193230 283.071930,110.058105 
	C287.700409,110.058105 291.634491,110.058105 296.126587,110.058105 
	C296.126587,103.191132 296.133331,96.572708 296.125153,89.954300 
	C296.109100,76.956528 296.277496,63.954689 296.002258,50.962311 
	C295.786133,40.760654 289.484650,36.246880 280.037506,39.323875 
	C277.084808,40.285587 274.429382,42.159523 271.636871,43.613960 
	C270.713959,44.094639 269.787903,44.569244 268.605957,45.179478 
	C268.351318,43.047070 268.159149,41.437912 267.952271,39.705429 
	C263.709961,39.705429 259.664551,39.705429 255.544525,39.705429 
	C255.544525,63.359802 255.544525,86.607147 255.544525,109.883423 
	C259.924835,109.883423 263.968872,109.883423 268.295654,109.883423 
	C268.295654,104.800072 268.295654,100.148506 268.295410,94.497711 
M213.650528,69.128197 
	C210.162598,71.057739 206.461197,72.686172 203.229538,74.977219 
	C195.642914,80.355675 192.508102,87.963196 193.623810,97.127121 
	C194.522873,104.511711 198.934204,109.734344 204.749222,111.006340 
	C211.228073,112.423553 216.409775,109.729164 220.761383,102.708740 
	C220.976776,102.361267 221.370255,102.124191 221.751984,101.769577 
	C223.971741,111.446129 224.624664,111.833450 235.008560,109.595284 
	C234.724152,103.361000 234.278809,97.083549 234.186127,90.800903 
	C234.021545,79.645180 234.194336,68.483925 233.980927,57.329674 
	C233.866425,51.345177 232.502853,45.415314 227.211258,41.913124 
	C219.465179,36.786457 210.937775,37.021160 202.962601,41.180431 
	C195.177963,45.240337 194.074844,52.909321 193.918335,61.308670 
	C198.383972,61.308670 202.409637,61.308670 206.477951,61.308670 
	C206.766922,58.426399 206.341492,55.580448 207.444962,53.576313 
	C208.646454,51.394127 211.045944,49.107716 213.339554,48.535324 
	C215.134872,48.087280 219.044174,49.782772 219.437622,51.227543 
	C220.632339,55.614677 221.159821,60.404144 220.682434,64.902710 
	C220.521927,66.415337 216.568039,67.525398 213.650528,69.128197 
M387.656891,78.724701 
	C387.262054,75.571289 389.157166,75.267097 391.642914,75.293594 
	C399.398499,75.376297 407.155487,75.323929 415.084381,75.323929 
	C415.084381,70.238342 415.194794,65.928177 415.043549,61.627209 
	C414.950500,58.980942 414.613770,56.318932 414.116852,53.715446 
	C412.111938,43.211132 406.794373,38.641037 396.406281,38.328949 
	C384.894867,37.983112 377.188599,42.508713 376.173126,53.151478 
	C374.823242,67.299141 374.522705,81.769913 375.916138,95.890221 
	C377.173340,108.630127 388.008728,113.945015 401.492645,110.669968 
	C411.662842,108.199768 417.272552,97.575592 414.342529,86.215157 
	C410.607880,86.215157 406.856476,86.215157 402.787292,86.215157 
	C402.593231,88.954659 402.472839,91.425072 402.232941,93.883835 
	C401.693695,99.410728 399.501221,101.765511 395.089905,101.661774 
	C390.837555,101.561760 388.321289,98.966347 387.948822,93.665024 
	C387.622437,89.018791 387.735535,84.341675 387.656891,78.724701 
M441.151672,231.509308 
	C442.423553,231.903015 443.677002,232.375183 444.970062,232.678589 
	C462.753448,236.851196 476.531921,224.670105 473.821869,207.077637 
	C472.669830,199.598969 469.042358,193.240860 463.764404,187.942062 
	C456.949432,181.100250 449.795868,174.595291 442.996979,167.738144 
	C440.580475,165.300903 438.195862,162.519440 436.803436,159.439911 
	C433.116150,151.285141 436.157990,143.154755 443.302643,140.680893 
	C452.361725,137.544174 460.506104,141.363968 463.191010,150.156418 
	C464.096100,153.120377 464.591827,156.209320 465.316223,159.425827 
	C468.015320,158.691696 470.379333,158.048721 472.636597,157.434753 
	C471.738129,137.986465 459.820343,128.770309 441.911926,133.300812 
	C434.548859,135.163544 429.588196,139.637848 427.750427,147.199631 
	C425.393921,156.895935 427.701996,165.362625 434.767090,172.375290 
	C441.859253,179.414825 449.371765,186.046936 456.214081,193.315109 
	C459.553436,196.862274 462.637146,201.128616 464.341003,205.634903 
	C467.641144,214.362823 464.116455,222.747818 457.239319,224.962769 
	C448.100708,227.906082 440.036957,223.877563 437.092224,214.699371 
	C436.005188,211.311371 435.388885,207.772354 434.527039,204.173416 
	C431.791077,205.041733 429.453156,205.783737 426.829712,206.616364 
	C427.729462,217.074341 430.395233,226.151321 441.151672,231.509308 
M330.042084,52.957176 
	C331.248535,48.780266 334.316589,47.713661 338.199554,48.194328 
	C342.135986,48.681614 343.251251,51.721703 343.693878,54.964634 
	C344.132965,58.181526 344.132477,61.458420 344.316559,64.570206 
	C348.429413,64.570206 352.004211,64.570206 356.356812,64.570206 
	C355.765991,59.362339 355.690094,54.497684 354.520264,49.912094 
	C353.786255,47.034706 351.955963,43.908546 349.677063,42.042671 
	C338.130463,32.588837 318.656647,39.585114 317.236450,54.326176 
	C315.936249,67.821503 315.926605,81.630745 317.179810,95.131668 
	C318.561737,110.019363 336.854950,116.979851 348.977844,108.010353 
	C350.896729,106.590599 352.940521,104.424545 353.487610,102.242706 
	C354.950043,96.410759 355.629822,90.382545 356.698853,83.962303 
	C351.754333,83.962303 348.179352,83.962303 343.974823,83.962303 
	C343.974823,86.979462 344.066315,89.768150 343.956207,92.548851 
	C343.708710,98.799072 341.600220,101.512558 337.006439,101.699242 
	C332.497742,101.882469 329.692719,99.710365 329.546631,93.661789 
	C329.225586,80.374466 329.719635,67.067444 330.042084,52.957176 
M96.159035,156.500000 
	C96.159035,181.626190 96.159035,206.752396 96.159035,232.135773 
	C108.294739,232.135773 120.054092,232.135773 131.920929,232.135773 
	C131.920929,229.884857 131.920929,227.806168 131.920929,225.164490 
	C123.087608,225.164490 114.531982,225.164490 106.056107,225.164490 
	C106.056107,211.325195 106.056107,198.053833 106.056107,184.429077 
	C113.090363,184.429077 119.870956,184.429077 126.848297,184.429077 
	C126.848297,181.996826 126.848297,179.923004 126.848297,177.452759 
	C119.825836,177.452759 113.057220,177.452759 106.134598,177.452759 
	C106.134598,165.000610 106.134598,152.948151 106.134598,140.481934 
	C114.901871,140.481934 123.337349,140.481934 131.816223,140.481934 
	C131.816223,137.954010 131.816223,135.844757 131.816223,133.674316 
	C119.865509,133.674316 108.143555,133.674316 96.159042,133.674316 
	C96.159042,141.196487 96.159042,148.348251 96.159035,156.500000 
M159.477066,64.499840 
	C159.477066,79.728958 159.477066,94.958084 159.477066,110.151489 
	C164.298416,110.151489 168.234451,110.151489 172.726044,110.151489 
	C172.726044,103.243660 172.726059,96.631386 172.726028,90.019119 
	C172.725952,65.376884 172.764984,40.734440 172.634842,16.092894 
	C172.626450,14.504474 171.503204,11.700704 170.572754,11.555892 
	C167.081223,11.012492 163.454437,11.338210 159.477631,11.338210 
	C159.477631,29.252558 159.477631,46.376186 159.477066,64.499840 
M159.380737,169.500397 
	C159.380737,157.559555 159.380737,145.618729 159.380737,133.591461 
	C156.045380,133.591461 153.289246,133.591461 150.310364,133.591461 
	C150.310364,166.552948 150.310364,199.251831 150.310364,232.048340 
	C162.764328,232.048340 174.989212,232.048340 187.058258,232.048340 
	C187.058258,229.663528 187.058258,227.605103 187.058258,225.179260 
	C177.695816,225.179260 168.760269,225.179260 159.380692,225.179260 
	C159.380692,206.704102 159.380692,188.602264 159.380737,169.500397 
M381.436218,140.593658 
	C383.073761,140.593658 384.711334,140.593658 386.931122,140.593658 
	C386.931122,171.348938 386.931122,201.712387 386.931122,232.116226 
	C390.289581,232.116226 393.060608,232.116226 396.207642,232.116226 
	C396.207642,201.597702 396.207642,171.328964 396.207642,140.574890 
	C402.331482,140.574890 408.087311,140.574890 413.986603,140.574890 
	C413.986603,137.982758 413.986603,135.881058 413.986603,133.591721 
	C398.665192,133.591721 383.582001,133.591721 368.333313,133.591721 
	C368.333313,135.943604 368.333313,138.029953 368.333313,140.593582 
	C372.521393,140.593582 376.491760,140.593582 381.436218,140.593658 
M211.370010,201.500214 
	C211.370010,178.913239 211.370010,156.326263 211.370010,133.615509 
	C207.968628,133.615509 205.224060,133.615509 202.360519,133.615509 
	C202.360519,166.618698 202.360519,199.342239 202.360519,232.101120 
	C205.410553,232.101120 208.172745,232.101120 211.370026,232.101120 
	C211.370026,222.068649 211.370026,212.284439 211.370010,201.500214 
z"/>
<path fill="#98B210" opacity="1.000000" stroke="none" 
	d="
M64.490234,14.317282 
	C79.984764,24.198059 79.662018,47.191498 64.236496,57.363197 
	C77.720665,66.673088 81.506042,77.583839 76.890320,93.835869 
	C74.228119,103.209518 66.972397,109.192421 57.003872,110.129951 
	C54.854809,110.332069 52.680016,110.300644 50.516895,110.306038 
	C42.871872,110.325096 35.226772,110.313446 27.180202,110.313446 
	C27.180202,77.328888 27.180202,44.639610 27.180202,11.232943 
	C39.564011,12.049887 52.078316,9.359637 64.490234,14.317282 
M40.364162,76.521454 
	C40.364120,81.001755 40.364056,85.482048 40.364040,89.962349 
	C40.363998,101.347961 40.364010,101.347961 52.057796,100.336075 
	C60.553085,99.600960 64.268593,95.939522 64.957939,87.519791 
	C65.120117,85.538940 65.134575,83.539825 65.107262,81.550621 
	C64.903656,66.724976 55.209324,59.804871 40.364529,64.287613 
	C40.364529,67.946678 40.364529,71.739815 40.364162,76.521454 
M63.148380,30.634182 
	C61.380966,28.187542 60.070396,24.345526 57.750614,23.586033 
	C52.986534,22.026279 47.688805,22.029900 42.591778,21.634243 
	C41.921062,21.582182 40.514122,22.953297 40.503326,23.680923 
	C40.361248,33.255264 40.408749,42.832420 40.408749,52.270203 
	C58.490204,55.581299 65.987251,48.519543 63.148380,30.634182 
z"/>
<path fill="#98B311" opacity="1.000000" stroke="none" 
	d="
M466.404175,110.315506 
	C464.684082,109.448036 463.408508,108.582458 462.165039,107.738640 
	C459.705139,108.786049 457.088104,110.461349 454.254517,111.002380 
	C445.524323,112.669273 438.151031,108.205017 436.221558,99.213493 
	C432.797089,83.254944 432.656250,67.017036 436.364166,51.135357 
	C439.378174,38.225800 449.545837,35.253883 463.043640,42.851166 
	C463.043640,32.350777 463.043640,22.172224 463.043640,11.654015 
	C467.564087,11.654015 471.476471,11.654015 475.811646,11.654015 
	C475.811646,44.362137 475.811646,77.048988 475.811646,110.317413 
	C472.750366,110.317413 469.799530,110.317413 466.404175,110.315506 
M463.168365,82.497032 
	C463.168030,73.529716 462.984589,64.556808 463.258270,55.597862 
	C463.366364,52.058681 461.777618,50.459000 458.859589,49.423367 
	C453.053955,47.362881 448.375580,49.904480 448.092041,56.517048 
	C447.567413,68.753777 447.932404,81.029854 448.007172,93.289047 
	C448.013977,94.402878 448.504669,95.552956 448.938049,96.618073 
	C450.624542,100.762924 453.880188,101.610344 457.912384,100.788071 
	C461.653442,100.025169 463.705719,98.207069 463.244049,93.948303 
	C462.870392,90.501526 463.168396,86.981949 463.168365,82.497032 
z"/>
<path fill="#090909" opacity="1.000000" stroke="none" 
	d="
M27.719378,136.567108 
	C28.678551,135.187622 29.617590,133.473694 30.598885,133.449142 
	C37.917465,133.266083 45.268349,133.056854 52.563644,133.540955 
	C66.775368,134.484070 74.637741,141.315353 75.414223,156.273148 
	C76.369095,174.667328 76.021721,193.212326 74.861412,211.605347 
	C74.012093,225.068390 65.365479,231.922607 51.836979,232.286606 
	C44.026543,232.496765 36.205826,232.324768 27.718813,232.324768 
	C27.718813,200.468567 27.718813,168.741760 27.719378,136.567108 
M36.974857,218.464676 
	C36.974857,220.721451 36.974857,222.978241 36.974857,225.344498 
	C41.630718,225.344498 45.621044,225.411728 49.608395,225.331329 
	C59.812889,225.125565 65.496048,220.539246 65.794250,210.335968 
	C66.333115,191.898849 66.295250,173.425568 65.805077,154.985825 
	C65.559608,145.751480 60.332108,141.306992 51.041054,140.750732 
	C46.477226,140.477509 41.883518,140.703369 36.974857,140.703369 
	C36.974857,166.627274 36.974857,192.047867 36.974857,218.464676 
z"/>
<path fill="#090909" opacity="1.000000" stroke="none" 
	d="
M280.989807,159.830566 
	C281.003479,161.438843 281.003479,162.596405 281.003479,164.023209 
	C278.040741,164.023209 275.291809,164.023209 272.576996,164.023209 
	C272.064514,159.236755 271.931030,154.574921 270.999084,150.078583 
	C269.565033,143.159698 265.635773,140.324356 258.155640,139.978668 
	C250.335220,139.617264 245.328552,142.540497 243.174759,148.921356 
	C242.543259,150.792267 242.007904,152.807770 241.999634,154.759445 
	C241.919861,173.562881 241.644379,192.374527 242.098648,211.167557 
	C242.339478,221.130875 247.620483,225.982330 256.494659,226.267990 
	C265.154266,226.546768 270.572388,222.549042 271.790802,213.881226 
	C272.801758,206.689499 272.799591,199.355331 273.283905,191.471909 
	C267.846313,191.471909 263.120758,191.471909 258.252869,191.471909 
	C258.252869,188.926910 258.252869,186.958252 258.252869,184.676666 
	C265.801025,184.676666 273.228851,184.676666 280.981323,184.676666 
	C280.981323,200.339661 280.981323,216.073807 280.981323,232.090851 
	C279.239349,232.090851 277.497986,232.090851 275.447144,232.090851 
	C275.106262,229.313080 274.774323,226.608063 274.442352,223.903046 
	C270.586670,230.181808 265.278625,233.450912 258.131775,233.925598 
	C244.334122,234.841965 235.044449,227.525208 233.051910,213.839279 
	C232.454758,209.737656 232.043869,205.560471 232.083954,201.423096 
	C232.240234,185.291199 231.749481,169.087250 233.128418,153.050171 
	C234.736954,134.342346 256.870667,125.292870 272.122314,136.521332 
	C279.748810,142.136093 280.591064,150.760361 280.989807,159.830566 
z"/>
<path fill="#040404" opacity="1.000000" stroke="none" 
	d="
M333.932831,184.330734 
	C326.778625,184.345047 320.115692,184.355286 313.452881,184.386719 
	C313.149078,184.388153 312.846222,184.580612 312.062164,184.848160 
	C312.062164,200.420685 312.062164,216.152985 312.062164,232.115082 
	C308.824066,232.115082 306.066467,232.115082 302.928558,232.115082 
	C302.928558,199.356827 302.928558,166.666336 302.928558,133.657318 
	C305.698242,133.657318 308.448120,133.657318 311.714722,133.657318 
	C311.714722,147.932953 311.714722,162.320312 311.714722,177.020935 
	C322.283875,177.020935 332.352844,177.020935 342.866638,177.020935 
	C342.866638,162.776672 342.866638,148.354660 342.866638,133.639496 
	C346.043304,133.639496 348.785187,133.639496 351.882446,133.639496 
	C351.882446,166.379593 351.882446,199.083984 351.882446,232.070847 
	C349.131439,232.070847 346.366943,232.070847 343.173401,232.070847 
	C343.173401,216.448669 343.173401,200.686844 343.173401,184.330719 
	C339.979156,184.330719 337.201660,184.330719 333.932831,184.330734 
z"/>
<path fill="#99B312" opacity="1.000000" stroke="none" 
	d="
M134.945831,47.270920 
	C135.922592,53.007973 137.344284,58.382462 137.459122,63.784725 
	C137.783737,79.057671 137.572693,94.342003 137.572693,110.266945 
	C134.994873,110.266945 131.240112,111.251839 128.610184,109.955215 
	C126.507347,108.918465 125.772797,105.106445 124.450447,102.563713 
	C124.447105,102.566216 124.120590,102.709167 123.945068,102.958427 
	C118.728401,110.366936 113.300835,112.817612 106.810104,110.674835 
	C100.574005,108.616127 96.703522,102.057579 96.743309,93.900162 
	C96.783836,85.591537 100.194267,79.052124 107.080589,74.526558 
	C110.537666,72.254631 114.413757,70.630142 118.014771,68.563728 
	C120.183884,67.319000 123.834930,65.915314 123.955521,64.360840 
	C124.304710,59.859619 123.626640,55.129185 122.412361,50.749153 
	C122.057388,49.468746 118.388535,48.151699 116.543709,48.494312 
	C114.483192,48.876980 112.007660,50.760933 111.092430,52.657345 
	C109.864845,55.200947 109.960808,58.383305 109.471878,61.394012 
	C105.467537,61.394012 101.535065,61.394012 97.662910,61.394012 
	C96.140221,51.652386 100.671486,42.764324 108.635765,39.915020 
	C117.255913,36.831066 130.486435,37.704437 134.945831,47.270920 
M124.331993,92.040306 
	C124.331993,86.463356 124.331993,80.886406 124.331993,74.003548 
	C120.520775,76.600471 117.599792,78.366188 114.934196,80.457443 
	C110.447334,83.977547 109.148026,88.791786 110.055183,94.264404 
	C110.963951,99.746666 115.349121,101.791649 119.900871,98.554214 
	C121.762352,97.230240 122.863831,94.837738 124.331993,92.040306 
z"/>
<path fill="#98B311" opacity="1.000000" stroke="none" 
	d="
M268.295532,94.997330 
	C268.295654,100.148506 268.295654,104.800072 268.295654,109.883423 
	C263.968872,109.883423 259.924835,109.883423 255.544525,109.883423 
	C255.544525,86.607147 255.544525,63.359802 255.544525,39.705429 
	C259.664551,39.705429 263.709961,39.705429 267.952271,39.705429 
	C268.159149,41.437912 268.351318,43.047070 268.605957,45.179478 
	C269.787903,44.569244 270.713959,44.094639 271.636871,43.613960 
	C274.429382,42.159523 277.084808,40.285587 280.037506,39.323875 
	C289.484650,36.246880 295.786133,40.760654 296.002258,50.962311 
	C296.277496,63.954689 296.109100,76.956528 296.125153,89.954300 
	C296.133331,96.572708 296.126587,103.191132 296.126587,110.058105 
	C291.634491,110.058105 287.700409,110.058105 283.071930,110.058105 
	C283.071930,108.193230 283.072174,106.421539 283.071899,104.649849 
	C283.069366,88.818909 283.097626,72.987854 283.041992,57.157097 
	C283.028320,53.274521 283.137115,49.038555 277.576752,48.817684 
	C272.407471,48.612350 268.314758,52.513939 268.304199,57.503494 
	C268.278046,69.834846 268.295471,82.166298 268.295532,94.997330 
z"/>
<path fill="#99B311" opacity="1.000000" stroke="none" 
	d="
M213.999237,68.973831 
	C216.568039,67.525398 220.521927,66.415337 220.682434,64.902710 
	C221.159821,60.404144 220.632339,55.614677 219.437622,51.227543 
	C219.044174,49.782772 215.134872,48.087280 213.339554,48.535324 
	C211.045944,49.107716 208.646454,51.394127 207.444962,53.576313 
	C206.341492,55.580448 206.766922,58.426399 206.477951,61.308670 
	C202.409637,61.308670 198.383972,61.308670 193.918335,61.308670 
	C194.074844,52.909321 195.177963,45.240337 202.962601,41.180431 
	C210.937775,37.021160 219.465179,36.786457 227.211258,41.913124 
	C232.502853,45.415314 233.866425,51.345177 233.980927,57.329674 
	C234.194336,68.483925 234.021545,79.645180 234.186127,90.800903 
	C234.278809,97.083549 234.724152,103.361000 235.008560,109.595284 
	C224.624664,111.833450 223.971741,111.446129 221.751984,101.769577 
	C221.370255,102.124191 220.976776,102.361267 220.761383,102.708740 
	C216.409775,109.729164 211.228073,112.423553 204.749222,111.006340 
	C198.934204,109.734344 194.522873,104.511711 193.623810,97.127121 
	C192.508102,87.963196 195.642914,80.355675 203.229538,74.977219 
	C206.461197,72.686172 210.162598,71.057739 213.999237,68.973831 
M220.073883,75.051743 
	C217.809814,76.396652 215.441422,77.594917 213.302917,79.116325 
	C208.536026,82.507652 205.860779,86.934769 206.692383,93.084518 
	C207.204391,96.870834 208.341324,99.984756 212.827408,100.043259 
	C216.579681,100.092194 221.015610,95.938164 221.063980,92.226562 
	C221.137085,86.614204 220.929489,80.998192 220.073883,75.051743 
z"/>
<path fill="#99B312" opacity="1.000000" stroke="none" 
	d="
M387.655701,79.201447 
	C387.735535,84.341675 387.622437,89.018791 387.948822,93.665024 
	C388.321289,98.966347 390.837555,101.561760 395.089905,101.661774 
	C399.501221,101.765511 401.693695,99.410728 402.232941,93.883835 
	C402.472839,91.425072 402.593231,88.954659 402.787292,86.215157 
	C406.856476,86.215157 410.607880,86.215157 414.342529,86.215157 
	C417.272552,97.575592 411.662842,108.199768 401.492645,110.669968 
	C388.008728,113.945015 377.173340,108.630127 375.916138,95.890221 
	C374.522705,81.769913 374.823242,67.299141 376.173126,53.151478 
	C377.188599,42.508713 384.894867,37.983112 396.406281,38.328949 
	C406.794373,38.641037 412.111938,43.211132 414.116852,53.715446 
	C414.613770,56.318932 414.950500,58.980942 415.043549,61.627209 
	C415.194794,65.928177 415.084381,70.238342 415.084381,75.323929 
	C407.155487,75.323929 399.398499,75.376297 391.642914,75.293594 
	C389.157166,75.267097 387.262054,75.571289 387.655701,79.201447 
M395.447449,68.274612 
	C397.699921,68.274612 399.952393,68.274612 402.888855,68.274612 
	C402.530121,62.873039 402.425659,58.243561 401.851013,53.673199 
	C401.436859,50.379593 399.371490,48.333130 395.815704,48.109509 
	C392.187256,47.881317 389.303986,49.188515 388.729767,52.881760 
	C387.958649,57.840927 387.843536,62.902092 387.418732,68.274857 
	C390.517578,68.274857 392.498901,68.274857 395.447449,68.274612 
z"/>
<path fill="#0B0B0B" opacity="1.000000" stroke="none" 
	d="
M440.797546,231.367157 
	C430.395233,226.151321 427.729462,217.074341 426.829712,206.616364 
	C429.453156,205.783737 431.791077,205.041733 434.527039,204.173416 
	C435.388885,207.772354 436.005188,211.311371 437.092224,214.699371 
	C440.036957,223.877563 448.100708,227.906082 457.239319,224.962769 
	C464.116455,222.747818 467.641144,214.362823 464.341003,205.634903 
	C462.637146,201.128616 459.553436,196.862274 456.214081,193.315109 
	C449.371765,186.046936 441.859253,179.414825 434.767090,172.375290 
	C427.701996,165.362625 425.393921,156.895935 427.750427,147.199631 
	C429.588196,139.637848 434.548859,135.163544 441.911926,133.300812 
	C459.820343,128.770309 471.738129,137.986465 472.636597,157.434753 
	C470.379333,158.048721 468.015320,158.691696 465.316223,159.425827 
	C464.591827,156.209320 464.096100,153.120377 463.191010,150.156418 
	C460.506104,141.363968 452.361725,137.544174 443.302643,140.680893 
	C436.157990,143.154755 433.116150,151.285141 436.803436,159.439911 
	C438.195862,162.519440 440.580475,165.300903 442.996979,167.738144 
	C449.795868,174.595291 456.949432,181.100250 463.764404,187.942062 
	C469.042358,193.240860 472.669830,199.598969 473.821869,207.077637 
	C476.531921,224.670105 462.753448,236.851196 444.970062,232.678589 
	C443.677002,232.375183 442.423553,231.903015 440.797546,231.367157 
z"/>
<path fill="#98B311" opacity="1.000000" stroke="none" 
	d="
M329.961487,53.362816 
	C329.719635,67.067444 329.225586,80.374466 329.546631,93.661789 
	C329.692719,99.710365 332.497742,101.882469 337.006439,101.699242 
	C341.600220,101.512558 343.708710,98.799072 343.956207,92.548851 
	C344.066315,89.768150 343.974823,86.979462 343.974823,83.962303 
	C348.179352,83.962303 351.754333,83.962303 356.698853,83.962303 
	C355.629822,90.382545 354.950043,96.410759 353.487610,102.242706 
	C352.940521,104.424545 350.896729,106.590599 348.977844,108.010353 
	C336.854950,116.979851 318.561737,110.019363 317.179810,95.131668 
	C315.926605,81.630745 315.936249,67.821503 317.236450,54.326176 
	C318.656647,39.585114 338.130463,32.588837 349.677063,42.042671 
	C351.955963,43.908546 353.786255,47.034706 354.520264,49.912094 
	C355.690094,54.497684 355.765991,59.362339 356.356812,64.570206 
	C352.004211,64.570206 348.429413,64.570206 344.316559,64.570206 
	C344.132477,61.458420 344.132965,58.181526 343.693878,54.964634 
	C343.251251,51.721703 342.135986,48.681614 338.199554,48.194328 
	C334.316589,47.713661 331.248535,48.780266 329.961487,53.362816 
z"/>
<path fill="#0F0F0F" opacity="1.000000" stroke="none" 
	d="
M96.159042,156.000015 
	C96.159042,148.348251 96.159042,141.196487 96.159042,133.674316 
	C108.143555,133.674316 119.865509,133.674316 131.816223,133.674316 
	C131.816223,135.844757 131.816223,137.954010 131.816223,140.481934 
	C123.337349,140.481934 114.901871,140.481934 106.134598,140.481934 
	C106.134598,152.948151 106.134598,165.000610 106.134598,177.452759 
	C113.057220,177.452759 119.825836,177.452759 126.848297,177.452759 
	C126.848297,179.923004 126.848297,181.996826 126.848297,184.429077 
	C119.870956,184.429077 113.090363,184.429077 106.056107,184.429077 
	C106.056107,198.053833 106.056107,211.325195 106.056107,225.164490 
	C114.531982,225.164490 123.087608,225.164490 131.920929,225.164490 
	C131.920929,227.806168 131.920929,229.884857 131.920929,232.135773 
	C120.054092,232.135773 108.294739,232.135773 96.159035,232.135773 
	C96.159035,206.752396 96.159035,181.626190 96.159042,156.000015 
z"/>
<path fill="#99B313" opacity="1.000000" stroke="none" 
	d="
M159.477356,63.999828 
	C159.477631,46.376186 159.477631,29.252558 159.477631,11.338210 
	C163.454437,11.338210 167.081223,11.012492 170.572754,11.555892 
	C171.503204,11.700704 172.626450,14.504474 172.634842,16.092894 
	C172.764984,40.734440 172.725952,65.376884 172.726028,90.019119 
	C172.726059,96.631386 172.726044,103.243660 172.726044,110.151489 
	C168.234451,110.151489 164.298416,110.151489 159.477066,110.151489 
	C159.477066,94.958084 159.477066,79.728958 159.477356,63.999828 
z"/>
<path fill="#070707" opacity="1.000000" stroke="none" 
	d="
M159.380707,170.000412 
	C159.380692,188.602264 159.380692,206.704102 159.380692,225.179260 
	C168.760269,225.179260 177.695816,225.179260 187.058258,225.179260 
	C187.058258,227.605103 187.058258,229.663528 187.058258,232.048340 
	C174.989212,232.048340 162.764328,232.048340 150.310364,232.048340 
	C150.310364,199.251831 150.310364,166.552948 150.310364,133.591461 
	C153.289246,133.591461 156.045380,133.591461 159.380737,133.591461 
	C159.380737,145.618729 159.380737,157.559555 159.380707,170.000412 
z"/>
<path fill="#080707" opacity="1.000000" stroke="none" 
	d="
M380.949158,140.593628 
	C376.491760,140.593582 372.521393,140.593582 368.333313,140.593582 
	C368.333313,138.029953 368.333313,135.943604 368.333313,133.591721 
	C383.582001,133.591721 398.665192,133.591721 413.986603,133.591721 
	C413.986603,135.881058 413.986603,137.982758 413.986603,140.574890 
	C408.087311,140.574890 402.331482,140.574890 396.207642,140.574890 
	C396.207642,171.328964 396.207642,201.597702 396.207642,232.116226 
	C393.060608,232.116226 390.289581,232.116226 386.931122,232.116226 
	C386.931122,201.712387 386.931122,171.348938 386.931122,140.593658 
	C384.711334,140.593658 383.073761,140.593658 380.949158,140.593628 
z"/>
<path fill="#050505" opacity="1.000000" stroke="none" 
	d="
M211.370026,202.000214 
	C211.370026,212.284439 211.370026,222.068649 211.370026,232.101120 
	C208.172745,232.101120 205.410553,232.101120 202.360519,232.101120 
	C202.360519,199.342239 202.360519,166.618698 202.360519,133.615509 
	C205.224060,133.615509 207.968628,133.615509 211.370010,133.615509 
	C211.370010,156.326263 211.370010,178.913239 211.370026,202.000214 
z"/>
<path fill="#F3F2E8" opacity="1.000000" stroke="none" 
	d="
M40.364346,76.027199 
	C40.364529,71.739815 40.364529,67.946678 40.364529,64.287613 
	C55.209324,59.804871 64.903656,66.724976 65.107262,81.550621 
	C65.134575,83.539825 65.120117,85.538940 64.957939,87.519791 
	C64.268593,95.939522 60.553085,99.600960 52.057796,100.336075 
	C40.364010,101.347961 40.363998,101.347961 40.364040,89.962349 
	C40.364056,85.482048 40.364120,81.001755 40.364346,76.027199 
z"/>
<path fill="#F2F1E6" opacity="1.000000" stroke="none" 
	d="
M63.238541,31.036827 
	C65.987251,48.519543 58.490204,55.581299 40.408749,52.270203 
	C40.408749,42.832420 40.361248,33.255264 40.503326,23.680923 
	C40.514122,22.953297 41.921062,21.582182 42.591778,21.634243 
	C47.688805,22.029900 52.986534,22.026279 57.750614,23.586033 
	C60.070396,24.345526 61.380966,28.187542 63.238541,31.036827 
z"/>
<path fill="#F4F3EB" opacity="1.000000" stroke="none" 
	d="
M463.168396,82.995850 
	C463.168396,86.981949 462.870392,90.501526 463.244049,93.948303 
	C463.705719,98.207069 461.653442,100.025169 457.912384,100.788071 
	C453.880188,101.610344 450.624542,100.762924 448.938049,96.618073 
	C448.504669,95.552956 448.013977,94.402878 448.007172,93.289047 
	C447.932404,81.029854 447.567413,68.753777 448.092041,56.517048 
	C448.375580,49.904480 453.053955,47.362881 458.859589,49.423367 
	C461.777618,50.459000 463.366364,52.058681 463.258270,55.597862 
	C462.984589,64.556808 463.168030,73.529716 463.168396,82.995850 
z"/>
<path fill="#F5F3EF" opacity="1.000000" stroke="none" 
	d="
M36.974857,217.966568 
	C36.974857,192.047867 36.974857,166.627274 36.974857,140.703369 
	C41.883518,140.703369 46.477226,140.477509 51.041054,140.750732 
	C60.332108,141.306992 65.559608,145.751480 65.805077,154.985825 
	C66.295250,173.425568 66.333115,191.898849 65.794250,210.335968 
	C65.496048,220.539246 59.812889,225.125565 49.608395,225.331329 
	C45.621044,225.411728 41.630718,225.344498 36.974857,225.344498 
	C36.974857,222.978241 36.974857,220.721451 36.974857,217.966568 
z"/>
<path fill="#F3F2E9" opacity="1.000000" stroke="none" 
	d="
M124.321526,92.485825 
	C122.863831,94.837738 121.762352,97.230240 119.900871,98.554214 
	C115.349121,101.791649 110.963951,99.746666 110.055183,94.264404 
	C109.148026,88.791786 110.447334,83.977547 114.934196,80.457443 
	C117.599792,78.366188 120.520775,76.600471 124.331993,74.003548 
	C124.331993,80.886406 124.331993,86.463356 124.321526,92.485825 
z"/>
<path fill="#F3F2E9" opacity="1.000000" stroke="none" 
	d="
M220.457520,75.217735 
	C220.929489,80.998192 221.137085,86.614204 221.063980,92.226562 
	C221.015610,95.938164 216.579681,100.092194 212.827408,100.043259 
	C208.341324,99.984756 207.204391,96.870834 206.692383,93.084518 
	C205.860779,86.934769 208.536026,82.507652 213.302917,79.116325 
	C215.441422,77.594917 217.809814,76.396652 220.457520,75.217735 
z"/>
<path fill="#F3F2E8" opacity="1.000000" stroke="none" 
	d="
M394.963867,68.274734 
	C392.498901,68.274857 390.517578,68.274857 387.418732,68.274857 
	C387.843536,62.902092 387.958649,57.840927 388.729767,52.881760 
	C389.303986,49.188515 392.187256,47.881317 395.815704,48.109509 
	C399.371490,48.333130 401.436859,50.379593 401.851013,53.673199 
	C402.425659,58.243561 402.530121,62.873039 402.888855,68.274612 
	C399.952393,68.274612 397.699921,68.274612 394.963867,68.274734 
z"/>
</svg>